<?xml version="1.0" standalone="no" ?>
<!DOCTYPE svg PUBLIC "-//W3C//DTD SVG 20010904//EN"
  "http://www.w3.org/TR/2001/REC-SVG-20010904/DTD/svg10.dtd">
<svg
  version="1.0"
  xmlns="http://www.w3.org/2000/svg"
  width="283.000000pt"
  height="164.000000pt"
  viewBox="0 0 283.000000 164.000000"
  preserveAspectRatio="xMidYMid meet"
>

<g
    transform="translate(0.000000,164.000000) scale(0.100000,-0.100000)"
    fill="#000000"
    stroke="none"
  >
<path
      d="M750 1380 c-286 -46 -489 -282 -490 -570 0 -224 123 -418 330 -521
55 -27 125 -48 163 -49 15 0 17 12 17 114 l0 114 -34 6 c-18 4 -60 24 -92 44
-115 74 -180 218 -156 344 15 80 45 139 98 193 60 60 138 96 220 103 l66 5 89
90 c49 50 87 92 84 95 -9 9 -118 31 -178 36 -34 2 -87 1 -117 -4z"
    />
<path
      d="M1313 1375 c-176 -32 -333 -149 -413 -308 -83 -166 -76 -393 19 -547
17 -27 31 -52 31 -55 0 -3 -25 -5 -55 -5 l-55 0 0 -115 0 -115 293 0 c398 0
474 14 610 106 114 78 185 175 227 309 45 146 19 347 -60 465 l-30 45 60 3 60
3 0 114 0 115 -307 -1 c-207 -1 -332 -5 -380 -14z m261 -254 c75 -37 128 -92
164 -170 22 -46 26 -71 27 -141 0 -77 -3 -92 -33 -152 -37 -77 -90 -128 -172
-167 -47 -22 -68 -26 -145 -26 -109 1 -160 20 -236 92 -81 75 -111 147 -110
265 0 93 35 170 107 238 81 76 147 101 261 96 57 -2 86 -10 137 -35z"
    />
<path
      d="M2060 1268 l0 -113 59 -18 c77 -24 156 -94 196 -173 27 -53 30 -68
30 -154 0 -87 -3 -100 -32 -156 -58 -112 -163 -182 -288 -191 -68 -5 -73 -7
-95 -40 -13 -19 -51 -59 -84 -89 -32 -30 -57 -57 -54 -60 16 -16 133 -37 208
-37 162 0 295 56 410 172 113 115 164 240 164 401 -1 107 -19 184 -66 273 -41
77 -132 174 -204 217 -65 39 -175 79 -216 80 l-28 0 0 -112z"
    />
</g>
</svg>
